<svg width="24" height="24" viewBox="0 0 24 24" fill="none" xmlns="http://www.w3.org/2000/svg">
  <path d="M22 16.92V19.92C22.0011 20.1986 21.9368 20.4719 21.8131 20.7154C21.6894 20.9589 21.5095 21.1668 21.2872 21.3214C21.0649 21.4761 20.8066 21.5727 20.5358 21.6027C20.265 21.6326 19.9914 21.5949 19.74 21.493C16.7237 20.3572 14.0233 18.5679 11.84 16.2599C9.65665 14.0766 7.86757 11.3762 6.73197 8.35999C6.62997 8.10859 6.59226 7.835 6.62218 7.56424C6.65209 7.29349 6.74867 7.03526 6.90337 6.81298C7.05806 6.5907 7.26595 6.41083 7.50942 6.28713C7.75289 6.16344 8.02599 6.09995 8.30397 6.09999H11.304C11.7463 6.09602 12.1758 6.24486 12.5202 6.51801C12.8646 6.79116 13.1013 7.17253 13.188 7.59999L14.274 13.32C14.3607 13.7801 14.291 14.2563 14.0759 14.6738C13.8608 15.0913 13.5122 15.4255 13.084 15.624L11.464 16.444C13.2254 18.6399 15.48 20.8945 17.676 22.656L18.496 21.036C18.6945 20.6078 19.0287 20.2592 19.4462 20.0441C19.8637 19.829 20.3399 19.7593 20.8 19.846L26.52 20.932C26.9475 21.0187 27.3288 21.2554 27.602 21.5998C27.8751 21.9442 28.024 22.3737 28.02 22.816V25.816C28.02 26.8356 27.5155 27.8134 26.6091 28.5385C25.7027 29.2636 24.4609 29.676 23.192 29.676C17.6433 29.2229 12.4433 26.9702 8.47197 23.348C4.84961 19.3767 2.59685 14.1767 2.14397 8.62799C2.14397 7.35909 2.55636 6.11726 3.28147 5.21085C4.00658 4.30444 4.98442 3.79999 6.00397 3.79999H9.00397" stroke="white" stroke-width="2" stroke-linecap="round" stroke-linejoin="round"/>
</svg>